{
  "accessors": [
    {
      "bufferView": 2,
      "componentType": 5126,
      "count": 277,
      "max": [
        1.0,
        1.0,
        1.0
      ],
      "min": [
        -1.0,
        -1.0,
        -1.0
      ],
      "type": "VEC3"
    },
    {
      "bufferView": 2,
      "byteOffset": 3324,
      "componentType": 5126,
      "count": 277,
      "max": [
        0.9935514330863953,
        0.9935514330863953,
        0.9935514330863953
      ],
      "min": [
        -0.9935514330863953,
        -0.9935514330863953,
        -0.9935514330863953
      ],
      "type": "VEC3"
    },
    {
      "bufferView": 1,
      "componentType": 5126,
      "count": 277,
      "max": [
        0.875,
        1.0
      ],
      "min": [
        0.125,
        0.0
      ],
      "type": "VEC2"
    },
    {
      "bufferView": 0,
      "componentType": 5125,
      "count": 1284,
      "type": "SCALAR"
    },
    {
      "bufferView": 2,
      "byteOffset": 6648,
      "componentType": 5126,
      "count": 130,
      "max": [
        1.0,
        1.0,
        1.0
      ],
      "min": [
        -1.0,
        -1.0,
        -1.0
      ],
      "type": "VEC3"
    },
    {
      "bufferView": 2,
      "byteOffset": 8208,
      "componentType": 5126,
      "count": 130,
      "max": [
        0.7278809547424316,
        0.6857142448425293,
        0.7278809547424316
      ],
      "min": [
        -0.7278809547424316,
        -0.6857142448425293,
        -0.7278809547424316
      ],
      "type": "VEC3"
    },
    {
      "bufferView": 1,
      "byteOffset": 2216,
      "componentType": 5126,
      "count": 130,
      "max": [
        1.0,
        1.0
      ],
      "min": [
        0.0,
        0.01000000536441803
      ],
      "type": "VEC2"
    },
    {
      "bufferView": 0,
      "byteOffset": 5136,
      "componentType": 5125,
      "count": 372,
      "type": "SCALAR"
    },
    {
      "bufferView": 2,
      "byteOffset": 9768,
      "componentType": 5126,
      "count": 64550,
      "max": [
        2.4427361488342285,
        13.192301750183105,
        1.0885417461395264
      ],
      "min": [
        -1.6171108484268188,
        -0.47638556361198425,
        -1.0885415077209473
      ],
      "type": "VEC3"
    },
    {
      "bufferView": 2,
      "byteOffset": 784368,
      "componentType": 5126,
      "count": 64550,
      "max": [
        0.9999948740005493,
        1.0,
        0.9999990463256836
      ],
      "min": [
        -0.999980092048645,
        -1.0,
        -0.9999990463256836
      ],
      "type": "VEC3"
    },
    {
      "bufferView": 1,
      "byteOffset": 3256,
      "componentType": 5126,
      "count": 64550,
      "max": [
        1.0000003576278687,
        1.0000001192092896
      ],
      "min": [
        0.0,
        0.0
      ],
      "type": "VEC2"
    },
    {
      "bufferView": 0,
      "byteOffset": 6624,
      "componentType": 5125,
      "count": 374784,
      "type": "SCALAR"
    },
    {
      "bufferView": 2,
      "byteOffset": 1558968,
      "componentType": 5126,
      "count": 64550,
      "max": [
        2.4427361488342285,
        13.192301750183105,
        1.0885417461395264
      ],
      "min": [
        -1.6171108484268188,
        -0.47638556361198425,
        -1.0885415077209473
      ],
      "type": "VEC3"
    },
    {
      "bufferView": 2,
      "byteOffset": 2333568,
      "componentType": 5126,
      "count": 64550,
      "max": [
        0.9999948740005493,
        1.0,
        0.9999990463256836
      ],
      "min": [
        -0.999980092048645,
        -1.0,
        -0.9999990463256836
      ],
      "type": "VEC3"
    },
    {
      "bufferView": 1,
      "byteOffset": 519656,
      "componentType": 5126,
      "count": 64550,
      "max": [
        1.0000003576278687,
        1.0000001192092896
      ],
      "min": [
        0.0,
        0.0
      ],
      "type": "VEC2"
    },
    {
      "bufferView": 0,
      "byteOffset": 1505760,
      "componentType": 5125,
      "count": 374784,
      "type": "SCALAR"
    },
    {
      "bufferView": 2,
      "byteOffset": 3108168,
      "componentType": 5126,
      "count": 64550,
      "max": [
        2.4427361488342285,
        13.192301750183105,
        1.0885417461395264
      ],
      "min": [
        -1.6171108484268188,
        -0.47638556361198425,
        -1.0885415077209473
      ],
      "type": "VEC3"
    },
    {
      "bufferView": 2,
      "byteOffset": 3882768,
      "componentType": 5126,
      "count": 64550,
      "max": [
        0.9999948740005493,
        1.0,
        0.9999990463256836
      ],
      "min": [
        -0.999980092048645,
        -1.0,
        -0.9999990463256836
      ],
      "type": "VEC3"
    },
    {
      "bufferView": 1,
      "byteOffset": 1036056,
      "componentType": 5126,
      "count": 64550,
      "max": [
        1.0000003576278687,
        1.0000001192092896
      ],
      "min": [
        0.0,
        0.0
      ],
      "type": "VEC2"
    },
    {
      "bufferView": 0,
      "byteOffset": 3004896,
      "componentType": 5125,
      "count": 374784,
      "type": "SCALAR"
    }
  ],
  "asset": {
    "extras": {
      "author": "no_na (https://sketchfab.com/no_na)",
      "license": "CC-BY-4.0 (http://creativecommons.org/licenses/by/4.0/)",
      "source": "https://sketchfab.com/3d-models/spotify-icon-97ff2bf93f904e19b92a93eb23600b4a",
      "title": "spotify icon"
    },
    "generator": "Sketchfab-12.68.0",
    "version": "2.0"
  },
  "bufferViews": [
    {
      "buffer": 0,
      "byteLength": 4504032,
      "name": "floatBufferViews",
      "target": 34963
    },
    {
      "buffer": 0,
      "byteLength": 1552456,
      "byteOffset": 4504032,
      "byteStride": 8,
      "name": "floatBufferViews",
      "target": 34962
    },
    {
      "buffer": 0,
      "byteLength": 4657368,
      "byteOffset": 6056488,
      "byteStride": 12,
      "name": "floatBufferViews",
      "target": 34962
    }
  ],
  "buffers": [
    {
      "byteLength": 10713856,
      "uri": "scene.bin"
    }
  ],
  "materials": [
    {
      "doubleSided": true,
      "name": "Material.001",
      "pbrMetallicRoughness": {
        "baseColorFactor": [
          0.0,
          0.0,
          0.0,
          1.0
        ],
        "metallicFactor": 0.0,
        "roughnessFactor": 0.0714286
      }
    },
    {
      "doubleSided": true,
      "name": "Material.002",
      "pbrMetallicRoughness": {
        "baseColorFactor": [
          0.0816624,
          0.652903,
          0.634349,
          1.0
        ],
        "metallicFactor": 0.0,
        "roughnessFactor": 0.598214
      }
    },
    {
      "doubleSided": true,
      "name": "Material.003",
      "pbrMetallicRoughness": {
        "baseColorFactor": [
          0.012847299999999999,
          0.028431300000000048,
          0.12370399999999995,
          1.0
        ],
        "metallicFactor": 0.0,
        "roughnessFactor": 0.129402339807124
      }
    }
  ],
  "meshes": [
    {
      "name": "Object_0",
      "primitives": [
        {
          "attributes": {
            "NORMAL": 1,
            "POSITION": 0,
            "TEXCOORD_0": 2
          },
          "indices": 3,
          "material": 0,
          "mode": 4
        }
      ]
    },
    {
      "name": "Object_1",
      "primitives": [
        {
          "attributes": {
            "NORMAL": 5,
            "POSITION": 4,
            "TEXCOORD_0": 6
          },
          "indices": 7,
          "material": 1,
          "mode": 4
        }
      ]
    },
    {
      "name": "Object_2",
      "primitives": [
        {
          "attributes": {
            "NORMAL": 9,
            "POSITION": 8,
            "TEXCOORD_0": 10
          },
          "indices": 11,
          "material": 2,
          "mode": 4
        }
      ]
    },
    {
      "name": "Object_3",
      "primitives": [
        {
          "attributes": {
            "NORMAL": 13,
            "POSITION": 12,
            "TEXCOORD_0": 14
          },
          "indices": 15,
          "material": 2,
          "mode": 4
        }
      ]
    },
    {
      "name": "Object_4",
      "primitives": [
        {
          "attributes": {
            "NORMAL": 17,
            "POSITION": 16,
            "TEXCOORD_0": 18
          },
          "indices": 19,
          "material": 2,
          "mode": 4
        }
      ]
    }
  ],
  "nodes": [
    {
      "children": [
        1
      ],
      "matrix": [
        1.0,
        0.0,
        0.0,
        0.0,
        0.0,
        2.220446049250313e-16,
        -1.0,
        0.0,
        0.0,
        1.0,
        2.220446049250313e-16,
        0.0,
        0.0,
        0.0,
        0.0,
        1.0
      ],
      "name": "Sketchfab_model"
    },
    {
      "children": [
        2
      ],
      "name": "root"
    },
    {
      "children": [
        3,
        5,
        7,
        9,
        11
      ],
      "matrix": [
        1.0,
        0.0,
        0.0,
        0.0,
        0.0,
        2.220446049250313e-16,
        1.0,
        0.0,
        0.0,
        -1.0,
        2.220446049250313e-16,
        0.0,
        0.0,
        0.0,
        0.0,
        1.0
      ],
      "name": "GLTF_SceneRootNode"
    },
    {
      "children": [
        4
      ],
      "matrix": [
        2.7142040729522705,
        0.0,
        0.0,
        0.0,
        0.0,
        2.7142040729522705,
        0.0,
        0.0,
        0.0,
        0.0,
        0.40477511286735535,
        0.0,
        0.0,
        0.0,
        -0.7669219970703125,
        1.0
      ],
      "name": "Cube_1"
    },
    {
      "mesh": 0,
      "name": "Object_4"
    },
    {
      "children": [
        6
      ],
      "matrix": [
        1.876031517982483,
        0.0,
        0.0,
        0.0,
        0.0,
        0.0,
        0.37139758467674255,
        0.0,
        0.0,
        -1.876031517982483,
        0.0,
        0.0,
        0.03129561245441437,
        -0.07684063911437988,
        -0.3053349256515503,
        1.0
      ],
      "name": "Cylinder_2"
    },
    {
      "mesh": 1,
      "name": "Object_6"
    },
    {
      "children": [
        8
      ],
      "matrix": [
        1.4191360702833385e-08,
        -0.16835613548755587,
        0.0,
        0.0,
        0.1983836293220513,
        1.6722489103787492e-08,
        0.0,
        0.0,
        0.0,
        0.0,
        0.198383629322052,
        0.0,
        -1.1805118322372437,
        0.5404950976371765,
        0.21090379357337952,
        1.0
      ],
      "name": "Sphere_4"
    },
    {
      "mesh": 2,
      "name": "Object_8"
    },
    {
      "children": [
        10
      ],
      "matrix": [
        1.1523246134725382e-08,
        -0.1367035359144206,
        0.0,
        0.0,
        0.16108554601669256,
        1.3578495852945747e-08,
        0.0,
        0.0,
        0.0,
        -0.0,
        0.16108554601669312,
        0.0,
        -1.0090296268463135,
        -0.08827278017997742,
        0.21090371906757355,
        1.0
      ],
      "name": "Sphere.001_5"
    },
    {
      "mesh": 3,
      "name": "Object_10"
    },
    {
      "children": [
        12
      ],
      "matrix": [
        1.017064794333353e-08,
        -0.12065728008747059,
        0.0,
        0.0,
        0.14217732846736858,
        1.1984652333593078e-08,
        0.0,
        0.0,
        0.0,
        -0.0,
        0.14217732846736908,
        0.0,
        -0.9137618541717529,
        -0.6668663024902344,
        0.21090362966060638,
        1.0
      ],
      "name": "Sphere.002_6"
    },
    {
      "mesh": 4,
      "name": "Object_12"
    }
  ],
  "scene": 0,
  "scenes": [
    {
      "name": "Sketchfab_Scene",
      "nodes": [
        0
      ]
    }
  ]
}
